<svg version="1.0" xmlns="http://www.w3.org/2000/svg" width="933.333" height="933.333" viewBox="0 0 700 700"><path d="M272.5 60.6C257.1 64 243.2 71.8 230.9 84c-8.8 8.7-15.7 18.8-19.9 29.3-6.3 15.9-6 1-6 265.3V619h58l.2-243.8.3-243.7 2.2-4c2.6-4.8 8.5-10.6 13.3-13.1 2.1-1 6.6-1.9 11.3-2.2 7.2-.4 8.2-.2 14.3 2.8 6.8 3.3 11.6 8.5 14.1 15.3.9 2.4 1.2 62.8 1.2 245.9L320 619h58V377.7c0-273.2-.8-248 8.3-257.2 14.3-14.2 37.6-10.5 46.4 7.3l2.8 5.7.3 242.7.2 242.8h57l-.2-245.2c-.3-231.9-.4-245.6-2.1-251.3-4.5-15.1-12.5-28.2-24.3-39.6-17.1-16.5-31.8-22.7-55.9-23.6-11.9-.4-15.3-.2-22.8 1.6-11.2 2.7-21.1 7.3-31.1 14.5l-7.9 5.7-2.6-2.4c-6.7-6.2-19.5-13.1-30.6-16.7-9.3-3-32.4-3.7-43-1.4z"/></svg>