<?xml version="1.0" standalone="no"?>
<!DOCTYPE svg PUBLIC "-//W3C//DTD SVG 20010904//EN"
 "http://www.w3.org/TR/2001/REC-SVG-20010904/DTD/svg10.dtd">
<svg version="1.0" xmlns="http://www.w3.org/2000/svg"
 width="700.000000pt" height="700.000000pt" viewBox="0 0 700.000000 700.000000"
 preserveAspectRatio="xMidYMid meet">
<metadata>
Created by potrace 1.14, written by Peter Selinger 2001-2017
</metadata>
<g transform="translate(0.000000,700.000000) scale(0.100000,-0.100000)"
fill="#000000" stroke="none">
<path d="M2725 6394 c-154 -34 -293 -112 -416 -234 -88 -87 -157 -188 -199
-293 -63 -159 -60 -10 -60 -2653 l0 -2404 290 0 290 0 2 2438 3 2437 22 40
c26 48 85 106 133 131 21 10 66 19 113 22 72 4 82 2 143 -28 68 -33 116 -85
141 -153 9 -24 12 -628 12 -2459 l1 -2428 290 0 290 0 0 2413 c0 2732 -8 2480
83 2572 143 142 376 105 464 -73 l28 -57 3 -2427 2 -2428 285 0 285 0 -2 2452
c-3 2319 -4 2456 -21 2513 -45 151 -125 282 -243 396 -171 165 -318 227 -559
236 -119 4 -153 2 -228 -16 -112 -27 -211 -73 -311 -145 l-79 -57 -26 24 c-67
62 -195 131 -306 167 -93 30 -324 37 -430 14z"/>
</g>
</svg>
